REM MD5 77c2910e9e3ad5968af68b20206293a8
FILE "Official U.S. PlayStation Magazine Demo Disc 37 (USA).bin" BINARY
  TRACK 01 MODE2/2352
    INDEX 01 00:00:00
  TRACK 02 AUDIO
    INDEX 00 42:15:66
    INDEX 01 42:17:66
  TRACK 03 AUDIO
    INDEX 00 43:28:10
    INDEX 01 43:30:10
REM LEADOUT 43:36:06
